<svg xmlns="http://www.w3.org/2000/svg" xmlns:xlink="http://www.w3.org/1999/xlink" width="745" zoomAndPan="magnify" viewBox="377 663 745 206" height="206" preserveAspectRatio="xMidYMid meet" version="1.0"><defs><g/><clipPath id="cb08c02c1b"><rect x="0" width="726" y="0" height="148"/></clipPath><clipPath id="6c8d153cdf"><rect x="0" width="175" y="0" height="78"/></clipPath></defs><g transform="matrix(1, 0, 0, 1, 387, 641)"><g clip-path="url(#cb08c02c1b)"><g fill="#ffffff" fill-opacity="1"><g transform="translate(0.817295, 109.929957)"><g><path d="M 85.875 -71.9375 L 76.4375 -71.9375 L 76.4375 -3.453125 L 85.875 -3.453125 L 85.875 0 L 52.15625 0 L 52.15625 -3.453125 L 61.578125 -3.453125 L 61.578125 -37.59375 L 27.4375 -37.59375 L 27.4375 -3.453125 L 36.859375 -3.453125 L 36.859375 0 L 3.140625 0 L 3.140625 -3.453125 L 12.5625 -3.453125 L 12.5625 -71.9375 L 3.140625 -71.9375 L 3.140625 -75.390625 L 36.859375 -75.390625 L 36.859375 -71.9375 L 27.4375 -71.9375 L 27.4375 -41.046875 L 61.578125 -41.046875 L 61.578125 -71.9375 L 52.15625 -71.9375 L 52.15625 -75.390625 L 85.875 -75.390625 Z M 85.875 -71.9375 "/></g></g></g><g fill="#ffffff" fill-opacity="1"><g transform="translate(89.825132, 109.929957)"><g><path d="M 58.640625 -3.453125 L 65.453125 -3.453125 L 65.453125 0 L 47.640625 0 L 45.765625 -9 C 42.410156 -5.71875 39.125 -3.222656 35.90625 -1.515625 C 32.695312 0.191406 28.789062 1.046875 24.1875 1.046875 C 18.25 1.046875 13.867188 -0.414062 11.046875 -3.34375 C 8.222656 -6.28125 6.8125 -10.785156 6.8125 -16.859375 L 6.8125 -47.859375 L 0 -47.859375 L 0 -51.3125 L 19.890625 -51.3125 L 19.890625 -14.453125 C 19.890625 -6.421875 22.6875 -2.40625 28.28125 -2.40625 C 33.019531 -2.40625 37.800781 -5.023438 42.625 -10.265625 C 43.8125 -11.515625 44.59375 -12.554688 44.96875 -13.390625 C 45.351562 -14.234375 45.546875 -15.390625 45.546875 -16.859375 L 45.546875 -47.859375 L 38.75 -47.859375 L 38.75 -51.3125 L 58.640625 -51.3125 Z M 58.640625 -3.453125 "/></g></g></g><g fill="#ffffff" fill-opacity="1"><g transform="translate(158.413534, 109.929957)"><g><path d="M 37.90625 -52.359375 C 44.882812 -52.359375 50.535156 -49.8125 54.859375 -44.71875 C 59.191406 -39.625 61.359375 -33.0625 61.359375 -25.03125 C 61.359375 -17.28125 59.191406 -10.992188 54.859375 -6.171875 C 50.535156 -1.359375 44.78125 1.046875 37.59375 1.046875 C 30.46875 1.046875 25.09375 -1.394531 21.46875 -6.28125 L 19.6875 0 L 1.578125 0 L 1.578125 -3.453125 L 8.6875 -3.453125 L 8.6875 -71.9375 L 1.578125 -71.9375 L 1.578125 -75.390625 L 21.78125 -75.390625 L 21.78125 -16.125 C 21.78125 -14.59375 22.546875 -12.429688 24.078125 -9.640625 C 26.941406 -4.816406 31.0625 -2.40625 36.4375 -2.40625 C 39.65625 -2.40625 42.171875 -3.453125 43.984375 -5.546875 C 45.796875 -7.640625 46.960938 -10.203125 47.484375 -13.234375 C 48.015625 -16.273438 48.28125 -20.207031 48.28125 -25.03125 C 48.28125 -28.863281 48.101562 -32.125 47.75 -34.8125 C 47.40625 -37.5 46.796875 -39.957031 45.921875 -42.1875 C 45.046875 -44.425781 43.785156 -46.101562 42.140625 -47.21875 C 40.503906 -48.34375 38.429688 -48.90625 35.921875 -48.90625 C 32.492188 -48.90625 29.628906 -48.03125 27.328125 -46.28125 L 25.34375 -48.484375 C 29.113281 -51.066406 33.300781 -52.359375 37.90625 -52.359375 Z M 37.90625 -52.359375 "/></g></g></g><g fill="#ffffff" fill-opacity="1"><g transform="translate(222.918028, 109.929957)"><g><path d="M 54.984375 -11.421875 C 49.597656 -3.109375 41.773438 1.046875 31.515625 1.046875 C 22.648438 1.046875 15.703125 -1.394531 10.671875 -6.28125 C 5.648438 -11.164062 3.140625 -17.867188 3.140625 -26.390625 C 3.140625 -34.273438 5.40625 -40.570312 9.9375 -45.28125 C 14.476562 -50 21.289062 -52.359375 30.375 -52.359375 C 39.03125 -52.359375 45.328125 -50.070312 49.265625 -45.5 C 53.210938 -40.925781 55.253906 -34.066406 55.390625 -24.921875 L 16.234375 -24.921875 C 16.234375 -18.359375 17.769531 -12.960938 20.84375 -8.734375 C 23.914062 -4.515625 28.242188 -2.40625 33.828125 -2.40625 C 40.390625 -2.40625 45.691406 -5.410156 49.734375 -11.421875 Z M 42.3125 -28.375 C 42.3125 -34.9375 41.28125 -39.976562 39.21875 -43.5 C 37.15625 -47.03125 34.171875 -48.832031 30.265625 -48.90625 C 27.054688 -48.90625 24.332031 -47.679688 22.09375 -45.234375 C 19.863281 -42.796875 18.328125 -40.09375 17.484375 -37.125 C 16.648438 -34.15625 16.234375 -31.238281 16.234375 -28.375 Z M 42.3125 -28.375 "/></g></g></g><g fill="#ffffff" fill-opacity="1"><g transform="translate(281.453767, 109.929957)"><g><path d="M 35.609375 -52.359375 C 39.441406 -52.359375 42.875 -51.378906 45.90625 -49.421875 C 48.945312 -47.472656 50.75 -44.40625 51.3125 -40.21875 L 38.21875 -40.21875 C 37.726562 -43.5 37.03125 -45.765625 36.125 -47.015625 C 35.21875 -48.273438 34.066406 -48.90625 32.671875 -48.90625 C 29.953125 -48.90625 27.5625 -47.382812 25.5 -44.34375 C 23.4375 -41.3125 22.40625 -38.015625 22.40625 -34.453125 L 22.515625 -3.453125 L 29.328125 -3.453125 L 29.328125 0 L 2.625 0 L 2.625 -3.453125 L 9.421875 -3.453125 L 9.421875 -47.859375 L 2.625 -47.859375 L 2.625 -51.3125 L 21.46875 -51.3125 L 22.09375 -44.921875 C 25.445312 -49.878906 29.953125 -52.359375 35.609375 -52.359375 Z M 35.609375 -52.359375 "/></g></g></g><g fill="#ffffff" fill-opacity="1"><g transform="translate(332.764178, 109.929957)"><g/></g></g><g fill="#ffffff" fill-opacity="1"><g transform="translate(356.848309, 109.929957)"><g><path d="M 73.09375 -51.203125 C 73.09375 -49.953125 72.9375 -48.734375 72.625 -47.546875 C 72.3125 -46.359375 71.695312 -44.925781 70.78125 -43.25 C 69.875 -41.570312 68.285156 -40.125 66.015625 -38.90625 C 63.753906 -37.6875 60.910156 -36.898438 57.484375 -36.546875 C 60.972656 -33.472656 62.71875 -29.039062 62.71875 -23.25 C 62.71875 -16.125 60.117188 -10.117188 54.921875 -5.234375 C 49.722656 -0.347656 42.757812 2.09375 34.03125 2.09375 C 31.726562 2.09375 29.390625 1.9375 27.015625 1.625 C 24.640625 1.3125 21.96875 0.648438 19 -0.359375 C 16.039062 -1.378906 13.425781 -2.707031 11.15625 -4.34375 C 8.882812 -5.988281 6.976562 -8.257812 5.4375 -11.15625 C 3.90625 -14.050781 3.140625 -17.382812 3.140625 -21.15625 C 3.140625 -27.4375 5.25 -32.476562 9.46875 -36.28125 C 13.695312 -40.09375 19.859375 -42 27.953125 -42 C 20.691406 -42 15.316406 -43.445312 11.828125 -46.34375 C 8.335938 -49.238281 6.59375 -53.234375 6.59375 -58.328125 C 6.59375 -64.328125 8.722656 -69.054688 12.984375 -72.515625 C 17.242188 -75.972656 22.796875 -77.703125 29.640625 -77.703125 C 35.078125 -77.703125 39.503906 -76.632812 42.921875 -74.5 C 46.347656 -72.375 48.0625 -69.847656 48.0625 -66.921875 L 44.5 -66.921875 C 44.5 -69.078125 43.296875 -70.835938 40.890625 -72.203125 C 38.484375 -73.566406 35.882812 -74.25 33.09375 -74.25 C 29.457031 -74.25 26.382812 -72.9375 23.875 -70.3125 C 21.363281 -67.695312 20.109375 -63.84375 20.109375 -58.75 C 20.109375 -48.976562 25.171875 -44.019531 35.296875 -43.875 L 35.296875 -40.3125 C 30.128906 -40.3125 26.09375 -38.566406 23.1875 -35.078125 C 20.289062 -31.585938 18.8125 -27.296875 18.75 -22.203125 C 18.675781 -16.617188 20.242188 -11.785156 23.453125 -7.703125 C 26.671875 -3.617188 31.242188 -1.578125 37.171875 -1.578125 C 43.179688 -1.578125 48.347656 -3.6875 52.671875 -7.90625 C 57.003906 -12.125 59.203125 -17.132812 59.265625 -22.9375 C 59.335938 -26.707031 58.410156 -29.863281 56.484375 -32.40625 C 54.566406 -34.957031 51.96875 -36.269531 48.6875 -36.34375 C 43.175781 -36.195312 40.421875 -33.925781 40.421875 -29.53125 L 36.859375 -29.53125 C 36.859375 -34.695312 38.078125 -38.726562 40.515625 -41.625 C 42.960938 -44.519531 46.5625 -45.96875 51.3125 -45.96875 L 57.171875 -45.96875 C 64.785156 -45.96875 68.59375 -48.410156 68.59375 -53.296875 C 68.59375 -58.179688 65 -60.625 57.8125 -60.625 L 57.8125 -63.984375 C 61.925781 -63.984375 65.5 -62.988281 68.53125 -61 C 71.570312 -59.007812 73.09375 -55.742188 73.09375 -51.203125 Z M 73.09375 -51.203125 "/></g></g></g><g fill="#ffffff" fill-opacity="1"><g transform="translate(419.46759, 109.929957)"><g/></g></g><g fill="#ffffff" fill-opacity="1"><g transform="translate(448.787829, 109.929957)"><g><path d="M 61.890625 -15.28125 L 65.34375 -15.28125 L 65.34375 0 L 5.234375 0 L 5.234375 -4.296875 L 46.90625 -71.9375 L 24.71875 -71.9375 C 19.757812 -71.9375 16.421875 -71.097656 14.703125 -69.421875 C 12.992188 -67.753906 12.140625 -64.648438 12.140625 -60.109375 L 8.6875 -60.109375 L 8.6875 -75.390625 L 63.875 -75.390625 L 63.875 -70.890625 L 22.3125 -3.453125 L 49.328125 -3.453125 C 54.210938 -3.453125 57.507812 -4.289062 59.21875 -5.96875 C 60.925781 -7.644531 61.816406 -10.75 61.890625 -15.28125 Z M 61.890625 -15.28125 "/></g></g></g><g fill="#ffffff" fill-opacity="1"><g transform="translate(519.365816, 109.929957)"><g><path d="M 22.9375 -75.390625 L 22.9375 -61.359375 L 9.84375 -61.359375 L 9.84375 -75.390625 Z M 22.9375 -3.453125 L 29.84375 -3.453125 L 29.84375 0 L 3.140625 0 L 3.140625 -3.453125 L 9.84375 -3.453125 L 9.84375 -47.859375 L 3.140625 -47.859375 L 3.140625 -51.3125 L 22.9375 -51.3125 Z M 22.9375 -3.453125 "/></g></g></g><g fill="#ffffff" fill-opacity="1"><g transform="translate(552.351088, 109.929957)"><g><path d="M 38.21875 -52.359375 C 45.34375 -52.359375 50.859375 -50.101562 54.765625 -45.59375 C 58.671875 -41.09375 60.625 -34.9375 60.625 -27.125 C 60.625 -18.882812 58.425781 -12.195312 54.03125 -7.0625 C 49.632812 -1.9375 43.703125 0.625 36.234375 0.625 C 30.296875 0.625 24.988281 -1.710938 20.3125 -6.390625 L 20.3125 15.921875 L 27.125 15.921875 L 27.125 19.375 L 0 19.375 L 0 15.921875 L 6.8125 15.921875 L 6.8125 -47.859375 L 0 -47.859375 L 0 -51.3125 L 17.796875 -51.3125 L 19.578125 -43.25 C 23.910156 -49.320312 30.125 -52.359375 38.21875 -52.359375 Z M 35.296875 -2.828125 C 39.203125 -2.828125 42.21875 -4.972656 44.34375 -9.265625 C 46.476562 -13.554688 47.546875 -19.265625 47.546875 -26.390625 C 47.546875 -33.367188 46.460938 -38.863281 44.296875 -42.875 C 42.128906 -46.894531 38.914062 -48.90625 34.65625 -48.90625 C 30.050781 -48.90625 26.039062 -46.492188 22.625 -41.671875 C 21.082031 -39.304688 20.3125 -37.144531 20.3125 -35.1875 L 20.3125 -16.546875 C 20.3125 -14.734375 21.007812 -12.601562 22.40625 -10.15625 C 23.664062 -8.0625 25.550781 -6.316406 28.0625 -4.921875 C 30.570312 -3.523438 32.984375 -2.828125 35.296875 -2.828125 Z M 35.296875 -2.828125 "/></g></g></g><g fill="#ffffff" fill-opacity="1"><g transform="translate(616.64613, 109.929957)"><g><path d="M 12.78125 -41.578125 C 12.78125 -39.335938 13.945312 -37.554688 16.28125 -36.234375 C 18.625 -34.910156 21.453125 -33.863281 24.765625 -33.09375 C 28.078125 -32.320312 31.410156 -31.410156 34.765625 -30.359375 C 38.117188 -29.316406 40.960938 -27.609375 43.296875 -25.234375 C 45.640625 -22.859375 46.8125 -19.820312 46.8125 -16.125 C 46.8125 -10.882812 44.75 -6.710938 40.625 -3.609375 C 36.507812 -0.503906 31.238281 1.046875 24.8125 1.046875 C 18.53125 1.046875 13.363281 -0.941406 9.3125 -4.921875 L 7.125 0 L 3.671875 0 L 3.671875 -14.65625 L 7.125 -14.65625 C 11.519531 -6.488281 16.960938 -2.40625 23.453125 -2.40625 C 27.085938 -2.40625 30.003906 -3.3125 32.203125 -5.125 C 34.398438 -6.945312 35.5 -9.078125 35.5 -11.515625 C 35.5 -13.753906 34.414062 -15.535156 32.25 -16.859375 C 30.082031 -18.179688 27.460938 -19.226562 24.390625 -20 C 21.328125 -20.769531 18.257812 -21.640625 15.1875 -22.609375 C 12.113281 -23.585938 9.492188 -25.226562 7.328125 -27.53125 C 5.160156 -29.84375 4.078125 -32.8125 4.078125 -36.4375 C 4.078125 -41.46875 5.941406 -45.378906 9.671875 -48.171875 C 13.410156 -50.960938 18.078125 -52.359375 23.671875 -52.359375 C 29.597656 -52.359375 34.414062 -50.859375 38.125 -47.859375 L 40 -51.3125 L 43.453125 -51.3125 L 43.453125 -38.53125 L 40 -38.53125 C 36.300781 -45.445312 30.890625 -48.90625 23.765625 -48.90625 C 20.347656 -48.90625 17.660156 -48.222656 15.703125 -46.859375 C 13.753906 -45.492188 12.78125 -43.734375 12.78125 -41.578125 Z M 12.78125 -41.578125 "/></g></g></g><g fill="#ffffff" fill-opacity="1"><g transform="translate(666.595255, 109.929957)"><g><path d="M 54.984375 -11.421875 C 49.597656 -3.109375 41.773438 1.046875 31.515625 1.046875 C 22.648438 1.046875 15.703125 -1.394531 10.671875 -6.28125 C 5.648438 -11.164062 3.140625 -17.867188 3.140625 -26.390625 C 3.140625 -34.273438 5.40625 -40.570312 9.9375 -45.28125 C 14.476562 -50 21.289062 -52.359375 30.375 -52.359375 C 39.03125 -52.359375 45.328125 -50.070312 49.265625 -45.5 C 53.210938 -40.925781 55.253906 -34.066406 55.390625 -24.921875 L 16.234375 -24.921875 C 16.234375 -18.359375 17.769531 -12.960938 20.84375 -8.734375 C 23.914062 -4.515625 28.242188 -2.40625 33.828125 -2.40625 C 40.390625 -2.40625 45.691406 -5.410156 49.734375 -11.421875 Z M 42.3125 -28.375 C 42.3125 -34.9375 41.28125 -39.976562 39.21875 -43.5 C 37.15625 -47.03125 34.171875 -48.832031 30.265625 -48.90625 C 27.054688 -48.90625 24.332031 -47.679688 22.09375 -45.234375 C 19.863281 -42.796875 18.328125 -40.09375 17.484375 -37.125 C 16.648438 -34.15625 16.234375 -31.238281 16.234375 -28.375 Z M 42.3125 -28.375 "/></g></g></g></g></g><g transform="matrix(1, 0, 0, 1, 663, 800)"><g clip-path="url(#6c8d153cdf)"><g fill="#ffffff" fill-opacity="1"><g transform="translate(0.249468, 57.754546)"><g><path d="M 38.984375 -18.125 L 38.984375 -16.328125 L 36.53125 -16.328125 L 36.53125 0 L 34.734375 0 L 33.046875 -4.40625 C 30.285156 -1.101562 26.253906 0.546875 20.953125 0.546875 C 15.660156 0.546875 11.117188 -1.3125 7.328125 -5.03125 C 3.535156 -8.75 1.640625 -13.625 1.640625 -19.65625 C 1.640625 -25.5 3.570312 -30.304688 7.4375 -34.078125 C 11.300781 -37.847656 15.789062 -39.734375 20.90625 -39.734375 C 25.1875 -39.734375 28.648438 -38.410156 31.296875 -35.765625 L 33.09375 -39.1875 L 34.890625 -39.1875 L 34.890625 -29.171875 L 33.09375 -29.171875 C 32.226562 -31.972656 30.695312 -34.132812 28.5 -35.65625 C 26.300781 -37.175781 23.929688 -37.9375 21.390625 -37.9375 C 17.691406 -37.9375 14.757812 -36.265625 12.59375 -32.921875 C 10.4375 -29.585938 9.359375 -25.164062 9.359375 -19.65625 C 9.359375 -13.769531 10.382812 -9.226562 12.4375 -6.03125 C 14.488281 -2.84375 17.328125 -1.25 20.953125 -1.25 C 23.316406 -1.25 25.210938 -2.144531 26.640625 -3.9375 C 28.078125 -5.738281 28.796875 -8.472656 28.796875 -12.140625 L 28.796875 -16.328125 L 19.65625 -16.328125 L 19.65625 -18.125 Z M 38.984375 -18.125 "/></g></g></g><g fill="#ffffff" fill-opacity="1"><g transform="translate(40.313462, 57.754546)"><g><path d="M 48.71875 -1.796875 L 52.265625 -1.796875 L 52.265625 0 L 38.375 0 L 38.375 -1.796875 L 41.921875 -1.796875 L 41.921875 -20.09375 C 41.921875 -23.644531 40.773438 -25.421875 38.484375 -25.421875 C 37.359375 -25.421875 36.113281 -25.039062 34.75 -24.28125 C 33.394531 -23.519531 32.265625 -22.519531 31.359375 -21.28125 C 30.597656 -20.226562 30.21875 -19.125 30.21875 -17.96875 L 30.21875 -1.796875 L 33.75 -1.796875 L 33.75 0 L 19.875 0 L 19.875 -1.796875 L 23.40625 -1.796875 L 23.40625 -20.09375 C 23.40625 -21.789062 23.097656 -23.101562 22.484375 -24.03125 C 21.867188 -24.957031 21 -25.421875 19.875 -25.421875 C 18.820312 -25.421875 17.625 -25.054688 16.28125 -24.328125 C 14.9375 -23.609375 13.789062 -22.59375 12.84375 -21.28125 C 12.082031 -20.125 11.703125 -19.019531 11.703125 -17.96875 L 11.703125 -1.796875 L 15.25 -1.796875 L 15.25 0 L 1.359375 0 L 1.359375 -1.796875 L 4.90625 -1.796875 L 4.90625 -24.875 L 1.359375 -24.875 L 1.359375 -26.671875 L 10.609375 -26.671875 L 11.546875 -22.265625 C 12.890625 -23.859375 14.3125 -25.082031 15.8125 -25.9375 C 17.320312 -26.789062 19.164062 -27.21875 21.34375 -27.21875 C 23.550781 -27.21875 25.425781 -26.753906 26.96875 -25.828125 C 28.507812 -24.898438 29.5 -23.710938 29.9375 -22.265625 C 32.875 -25.566406 36.378906 -27.21875 40.453125 -27.21875 C 43.054688 -27.21875 45.082031 -26.59375 46.53125 -25.34375 C 47.988281 -24.09375 48.71875 -22.25 48.71875 -19.8125 Z M 48.71875 -1.796875 "/></g></g></g><g fill="#ffffff" fill-opacity="1"><g transform="translate(93.931709, 57.754546)"><g><path d="M 19.703125 -27.21875 C 23.335938 -27.21875 26.28125 -25.890625 28.53125 -23.234375 C 30.78125 -20.585938 31.90625 -17.179688 31.90625 -13.015625 C 31.90625 -8.984375 30.78125 -5.710938 28.53125 -3.203125 C 26.28125 -0.703125 23.285156 0.546875 19.546875 0.546875 C 15.835938 0.546875 13.039062 -0.722656 11.15625 -3.265625 L 10.234375 0 L 0.8125 0 L 0.8125 -1.796875 L 4.515625 -1.796875 L 4.515625 -37.40625 L 0.8125 -37.40625 L 0.8125 -39.1875 L 11.328125 -39.1875 L 11.328125 -8.390625 C 11.328125 -7.585938 11.722656 -6.460938 12.515625 -5.015625 C 14.003906 -2.503906 16.144531 -1.25 18.9375 -1.25 C 20.613281 -1.25 21.921875 -1.789062 22.859375 -2.875 C 23.804688 -3.96875 24.414062 -5.300781 24.6875 -6.875 C 24.957031 -8.457031 25.09375 -10.503906 25.09375 -13.015625 C 25.09375 -15.003906 25 -16.695312 24.8125 -18.09375 C 24.632812 -19.5 24.316406 -20.78125 23.859375 -21.9375 C 23.410156 -23.101562 22.757812 -23.972656 21.90625 -24.546875 C 21.050781 -25.128906 19.972656 -25.421875 18.671875 -25.421875 C 16.890625 -25.421875 15.398438 -24.96875 14.203125 -24.0625 L 13.171875 -25.203125 C 15.128906 -26.546875 17.304688 -27.21875 19.703125 -27.21875 Z M 19.703125 -27.21875 "/></g></g></g><g fill="#ffffff" fill-opacity="1"><g transform="translate(127.46352, 57.754546)"><g><path d="M 44.640625 -37.40625 L 39.734375 -37.40625 L 39.734375 -1.796875 L 44.640625 -1.796875 L 44.640625 0 L 27.109375 0 L 27.109375 -1.796875 L 32.015625 -1.796875 L 32.015625 -19.546875 L 14.265625 -19.546875 L 14.265625 -1.796875 L 19.15625 -1.796875 L 19.15625 0 L 1.640625 0 L 1.640625 -1.796875 L 6.53125 -1.796875 L 6.53125 -37.40625 L 1.640625 -37.40625 L 1.640625 -39.1875 L 19.15625 -39.1875 L 19.15625 -37.40625 L 14.265625 -37.40625 L 14.265625 -21.34375 L 32.015625 -21.34375 L 32.015625 -37.40625 L 27.109375 -37.40625 L 27.109375 -39.1875 L 44.640625 -39.1875 Z M 44.640625 -37.40625 "/></g></g></g></g></g><path stroke-linecap="butt" transform="matrix(0.75, 0, 0, 0.75, 387.817296, 790.016336)" fill="none" stroke-linejoin="miter" d="M -0.00118626 3.499052 L 965.821814 3.499052 " stroke="#ffffff" stroke-width="7" stroke-opacity="1" stroke-miterlimit="4"/></svg>